{"scene":0,"asset":{"generator":"ImageToStl.com","version":"2.0"},"scenes":[{"name":"Scene","nodes":[0]}],"nodes":[{"name":"Node0","children":[1]},{"name":"Node1","mesh":0,"children":[2,3,4]},{"name":"Node2","mesh":1},{"name":"Node3","mesh":2},{"name":"Node4","mesh":3}],"materials":[{"name":"#919191FF","pbrMetallicRoughness":{"baseColorFactor":[0.5686275,0.5686275,0.5686275,1.0],"metallicFactor":0.05,"roughnessFactor":0.5},"doubleSided":true},{"name":"#CAD1EEFF","pbrMetallicRoughness":{"baseColorFactor":[0.7921569,0.81960785,0.93333334,1.0],"metallicFactor":0.05,"roughnessFactor":0.5},"doubleSided":true},{"name":"#252525FF","pbrMetallicRoughness":{"baseColorFactor":[0.14509805,0.14509805,0.14509805,1.0],"metallicFactor":0.05,"roughnessFactor":0.5},"doubleSided":true},{"name":"#646464FF","pbrMetallicRoughness":{"baseColorFactor":[0.39215687,0.39215687,0.39215687,1.0],"metallicFactor":0.05,"roughnessFactor":0.5},"doubleSided":true}],"meshes":[{"name":"Mesh0","primitives":[{"indices":1,"material":3,"attributes":{"POSITION":0}}]},{"name":"Mesh0","primitives":[{"indices":3,"material":0,"attributes":{"POSITION":2}}]},{"name":"Mesh0","primitives":[{"indices":5,"material":1,"attributes":{"POSITION":4}}]},{"name":"Mesh0","primitives":[{"indices":7,"material":2,"attributes":{"POSITION":6}}]}],"accessors":[{"bufferView":0,"componentType":5126,"count":555,"type":"VEC3","min":[-179.0,21.430977,-89.167786],"max":[179.0,23.059,111.50827]},{"bufferView":1,"componentType":5123,"count":3066,"type":"SCALAR"},{"bufferView":2,"componentType":5126,"count":126,"type":"VEC3","min":[-179.0,0.0,-128.69783],"max":[179.00002,278.89584,131.30219]},{"bufferView":3,"componentType":5123,"count":549,"type":"SCALAR"},{"bufferView":4,"componentType":5126,"count":105,"type":"VEC3","min":[-178.99998,21.43098,-123.69783],"max":[179.00002,258.89584,111.50827]},{"bufferView":5,"componentType":5123,"count":279,"type":"SCALAR"},{"bufferView":6,"componentType":5126,"count":4,"type":"VEC3","min":[-163.99998,62.843155,-113.5772],"max":[164.00002,258.89584,-113.57718]},{"bufferView":7,"componentType":5123,"count":6,"type":"SCALAR"}],"bufferViews":[{"target":34962,"buffer":0,"byteLength":6660,"byteOffset":0},{"target":34963,"buffer":0,"byteLength":6132,"byteOffset":6660},{"target":34962,"buffer":0,"byteLength":1512,"byteOffset":12792},{"target":34963,"buffer":0,"byteLength":1098,"byteOffset":14304},{"target":34962,"buffer":0,"byteLength":1260,"byteOffset":15404},{"target":34963,"buffer":0,"byteLength":558,"byteOffset":16664},{"target":34962,"buffer":0,"byteLength":48,"byteOffset":17224},{"target":34963,"buffer":0,"byteLength":12,"byteOffset":17272}],"buffers":[{"byteLength":17284,"uri":"data:application/octet-stream;base64,"}]}